# 3ds Max Wavefront OBJ Exporter v0.97b - (c)2007 guruware
# File Created: 01.02.2016 17:09:42

#
# object Merged_Model
#

#
# object Group31612
#

v  21.4241 49.0561 1.2123
v  34.5899 40.6160 7.1825
v  36.9945 37.7991 -7.1563
v  21.4376 48.5495 -8.1024
v  43.2915 -4.4258 -52.0622
v  6.8092 -5.8697 -61.8957
v  53.9826 16.9729 -30.9465
v  12.5476 64.0960 -2.0994
v  1.0586 60.9969 -12.7090
v  -3.7032 59.5427 -5.6829
v  5.9926 63.1905 5.8500
v  -26.0635 31.9061 30.2136
v  -32.8553 32.4971 39.6420
v  -27.4288 32.8820 45.1468
v  -36.8769 32.6072 33.7820
v  -36.7096 39.0531 8.2698
v  -36.2093 35.1786 18.4743
v  -30.4951 34.6565 23.7184
v  -26.8812 38.7770 22.2225
v  -22.9928 44.1086 23.9223
v  -40.7928 34.5291 10.7560
v  39.1920 25.6484 -23.6257
v  8.4283 29.2821 -45.8681
v  7.6915 31.4658 -43.6732
v  37.1044 28.5855 -22.8002
v  -1.2000 46.6811 -17.9870
v  -10.1081 44.1677 -27.5197
v  -17.8800 43.8298 -17.1479
v  -7.4675 46.0874 -9.6588
v  37.4134 31.3482 8.2199
v  41.5247 27.3321 -6.7174
v  6.3473 37.3481 -37.8161
v  7.1546 48.1344 -20.7785
v  33.4123 36.0999 -21.8128
v  28.1267 38.6422 23.9676
v  20.5053 39.1495 28.4127
v  21.8566 36.7843 30.1656
v  29.6552 36.1208 25.0808
v  14.4339 60.5759 -1.2558
v  16.6941 59.3930 -7.9016
v  15.1147 61.6028 -7.5162
v  -12.4256 -9.4410 -64.6414
v  -5.6766 -3.7109 -62.5763
v  -6.5758 -6.2964 -59.2263
v  -13.0619 -10.1778 -59.9195
v  -69.4671 0.0415 -11.6370
v  -51.2651 -2.6134 -36.3591
v  -49.1586 -12.4790 -33.8031
v  -67.9398 -6.1784 -11.3279
v  -51.5269 26.3371 23.3826
v  -56.5465 20.1316 13.6568
v  -52.2015 21.3862 22.5426
v  -9.1621 55.7926 3.2154
v  -58.9329 16.7287 -7.6059
v  -59.0814 17.9242 3.8388
v  -43.2366 33.2379 1.2915
v  -42.5890 31.6818 -7.6605
v  -38.0898 12.9446 52.6192
v  -36.7671 15.6154 48.6671
v  -44.7686 14.6165 41.4547
v  -46.1153 11.2961 44.7410
v  28.9497 29.8555 40.1220
v  7.8523 32.1459 50.0169
v  37.7054 28.3930 34.6785
v  -23.0596 36.4057 26.3110
v  -38.9393 36.7340 -0.1702
v  -38.9138 34.1125 -7.6360
v  -12.9644 48.0905 2.5333
v  -14.8592 51.5891 7.1601
v  -23.8692 30.0617 -35.5173
v  -34.3098 26.9295 -23.6831
v  -30.7880 30.9648 -21.5405
v  -20.5071 31.3404 -33.3774
v  -71.6795 -6.6017 2.8779
v  -73.8728 1.7227 1.5637
v  62.5615 15.8903 -11.0042
v  62.4927 16.8647 -3.0569
v  65.3600 -4.6024 0.7747
v  66.7676 -5.6915 -9.7291
v  50.9864 25.8371 15.4946
v  36.0369 31.6153 32.2157
v  56.5087 -5.0771 26.9699
v  48.0906 27.5416 12.9131
v  -4.4225 18.2262 -60.6150
v  -44.8742 30.9779 30.6652
v  -41.4939 31.1460 36.8727
v  -53.4605 5.4808 54.9468
v  -69.5511 3.1128 36.2712
v  -48.5079 18.0186 -32.2994
v  19.3455 45.1467 25.1805
v  59.1418 20.8877 -3.4174
v  55.8027 23.8797 -3.5492
v  -27.4130 45.9925 -0.2341
v  -35.2481 -3.2121 -52.8632
v  -33.2058 19.5350 -48.7135
v  2.6228 34.1151 36.1441
v  -24.2205 45.7675 -4.2311
v  8.4791 60.7718 -14.9827
v  -16.4107 18.1102 -57.2600
v  27.1707 33.1801 37.4440
v  -74.5961 -4.5737 22.1933
v  -72.8288 -4.4105 28.0406
v  -73.8004 3.8338 29.0820
v  -76.6715 4.1916 22.3600
v  45.7319 -9.5737 -43.6930
v  12.3780 50.6042 11.1404
v  17.1741 6.0822 65.5724
v  14.0682 14.6242 59.1593
v  -31.2877 13.7124 57.4874
v  -34.9765 8.6759 69.2914
v  13.2465 17.0104 56.6418
v  58.4590 -4.5101 -34.5648
v  -29.9245 32.8233 49.1870
v  -36.3999 32.0501 43.4002
v  52.3459 -10.9798 -32.6252
v  43.3964 -13.8885 -37.9364
v  55.5904 -4.0656 38.3864
v  44.3539 23.0504 -6.9428
v  -34.1566 -9.7647 -49.1868
v  -9.7197 29.7644 -44.8016
v  -1.7084 29.7091 -46.3222
v  25.9974 44.6808 20.9526
v  16.0520 49.9284 8.6944
v  -75.9969 2.9501 13.8325
v  -73.6351 -5.6740 14.5048
v  -8.8555 31.8966 -43.0825
v  -33.5257 -1.4362 70.5049
v  -30.0123 16.1708 53.3589
v  -40.6846 33.1630 27.8250
v  3.8866 -9.1680 -59.9503
v  3.6548 -12.7575 -53.8890
v  61.3256 -12.5839 0.3792
v  60.8756 -12.8390 -9.6809
v  -69.8913 -4.5543 33.9658
v  -53.6373 -3.1420 56.0875
v  -43.8692 7.6299 63.8405
v  -43.3614 -0.9826 66.0528
v  -1.8041 32.0823 -44.1824
# 138 vertices

vn 0.6394 0.7602 0.1151
vn 0.7791 0.6074 0.1550
vn 0.7835 0.6118 -0.1088
vn 0.6564 0.6963 -0.2903
vn 0.5287 -0.1051 -0.8423
vn 0.2330 -0.2028 -0.9511
vn 0.6441 0.5863 -0.4913
vn 0.3930 0.9114 0.1225
vn -0.4395 0.7417 -0.5067
vn -0.6541 0.7249 -0.2160
vn 0.0657 0.8855 0.4600
vn -0.1117 0.9495 0.2931
vn -0.0619 0.9981 -0.0028
vn -0.0325 0.9994 -0.0097
vn -0.0604 0.9932 0.0995
vn -0.6242 0.7675 0.1462
vn -0.3329 0.9137 0.2332
vn -0.2962 0.8510 0.4337
vn -0.6278 0.5019 0.5949
vn -0.4036 0.6284 0.6650
vn -0.6308 0.7661 0.1232
vn 0.5304 0.7969 -0.2891
vn 0.2390 0.0169 -0.9709
vn 0.2799 0.7165 -0.6389
vn 0.7064 0.5292 -0.4701
vn -0.3465 0.7854 -0.5129
vn -0.2345 0.8483 -0.4748
vn -0.3717 0.8803 -0.2948
vn -0.4882 0.8073 -0.3316
vn 0.7096 0.7038 0.0344
vn 0.8356 0.5278 -0.1521
vn 0.1571 0.7857 -0.5984
vn 0.0716 0.7067 -0.7039
vn 0.6136 0.5995 -0.5139
vn 0.6099 0.5838 0.5359
vn 0.2290 0.6158 0.7539
vn 0.2427 0.8346 0.4945
vn 0.4895 0.7614 0.4251
vn 0.7917 0.5002 0.3508
vn 0.8453 0.4586 -0.2742
vn 0.5801 0.7719 -0.2602
vn 0.0699 -0.5917 -0.8031
vn 0.1960 -0.2771 -0.9406
vn 0.2952 -0.8300 -0.4732
vn 0.1551 -0.9791 -0.1319
vn -0.9008 0.1437 -0.4098
vn -0.7556 -0.0587 -0.6524
vn -0.7196 -0.3083 -0.6222
vn -0.8650 -0.2345 -0.4435
vn -0.8148 0.4684 0.3416
vn -0.6873 0.7253 0.0384
vn -0.8196 0.5668 0.0832
vn 0.4786 0.8734 -0.0897
vn -0.7567 0.6305 -0.1731
vn -0.7304 0.6819 -0.0389
vn -0.6653 0.7454 -0.0417
vn -0.5715 0.7657 -0.2951
vn -0.3889 0.8595 0.3317
vn -0.5466 0.5711 0.6124
vn -0.1240 0.5947 0.7943
vn 0.0010 0.7826 0.6226
vn 0.4467 -0.2027 0.8714
vn 0.1533 0.7354 0.6600
vn 0.6114 0.3978 0.6841
vn -0.2523 0.5901 0.7669
vn -0.6347 0.7620 -0.1286
vn -0.5305 0.7583 -0.3788
vn -0.4177 0.7680 -0.4855
vn -0.5113 0.8435 -0.1642
vn -0.3474 0.8844 -0.3117
vn -0.4613 0.8052 -0.3726
vn -0.5483 0.7191 -0.4269
vn -0.3358 0.8525 -0.4006
vn -0.9410 -0.2733 -0.1994
vn -0.9385 0.2397 -0.2487
vn 0.8282 0.5144 -0.2226
vn 0.9077 0.4015 0.1218
vn 0.9673 -0.1508 0.2038
vn 0.9659 -0.2443 -0.0858
vn 0.7119 0.6436 0.2811
vn 0.4973 0.7928 0.3523
vn 0.8152 0.4092 0.4099
vn 0.4295 0.9026 -0.0288
vn 0.0718 0.4862 -0.8709
vn -0.5796 0.7847 0.2198
vn -0.6025 0.7037 0.3765
vn -0.6427 0.4853 0.5928
vn -0.7875 0.2416 0.5669
vn -0.6541 0.5809 -0.4845
vn 0.1838 0.7445 0.6418
vn 0.7155 0.6985 -0.0098
vn 0.3683 0.8870 -0.2786
vn -0.4387 0.8838 -0.1625
vn -0.6000 -0.1152 -0.7917
vn -0.5191 0.5504 -0.6539
vn -0.0570 0.9611 0.2703
vn -0.3016 0.9097 -0.2855
vn 0.1873 0.7104 -0.6784
vn -0.3092 0.4933 -0.8131
vn 0.3277 0.8355 0.4411
vn -0.9669 -0.2218 0.1258
vn -0.9160 -0.1399 0.3760
vn -0.8575 0.2733 0.4358
vn -0.9424 0.3105 0.1245
vn 0.5678 -0.5858 -0.5783
vn 0.3082 0.8035 0.5093
vn 0.3606 -0.0414 0.9318
vn 0.2612 0.6895 0.6755
vn -0.1651 0.8945 0.4156
vn -0.2056 0.5803 0.7880
vn 0.3190 0.6425 0.6968
vn 0.7974 -0.1779 -0.5767
vn -0.2860 0.7276 0.6235
vn -0.5105 0.7494 0.4217
vn 0.5973 -0.7098 -0.3734
vn 0.3449 -0.8142 -0.4670
vn 0.5241 0.8437 0.1160
vn 0.5220 0.8235 -0.2222
vn -0.5787 -0.4800 -0.6594
vn -0.2468 0.7544 -0.6082
vn 0.0525 0.6888 -0.7230
vn 0.5409 0.7431 0.3940
vn 0.2623 0.9601 0.0967
vn -0.9500 0.2694 -0.1578
vn -0.9562 -0.2706 -0.1113
vn -0.2836 0.8000 -0.5288
vn -0.1288 0.0076 0.9916
vn -0.2863 0.6414 0.7118
vn -0.2869 0.9545 0.0811
vn 0.0758 -0.6802 -0.7291
vn 0.1752 -0.8501 -0.4967
vn 0.8846 -0.4527 0.1120
vn 0.7871 -0.6063 -0.1133
vn -0.8443 -0.0973 0.5269
vn -0.7572 0.1009 0.6454
vn -0.5449 0.5981 0.5877
vn -0.5809 0.1244 0.8044
vn -0.0488 0.7401 -0.6707
# 138 vertex normals

vt 0.4867 0.6027 0.0000
vt 0.5170 0.6699 0.0000
vt 0.4510 0.6864 0.0000
vt 0.4413 0.6043 0.0000
vt 0.1783 0.7957 0.0000
vt 0.0525 0.6023 0.0000
vt 0.3252 0.8086 0.0000
vt 0.4688 0.5424 0.0000
vt 0.4303 0.4993 0.0000
vt 0.4490 0.4721 0.0000
vt 0.4929 0.5164 0.0000
vt 0.6353 0.3528 0.0000
vt 0.6796 0.3228 0.0000
vt 0.7039 0.3519 0.0000
vt 0.6504 0.3003 0.0000
vt 0.5091 0.3043 0.0000
vt 0.5671 0.3013 0.0000
vt 0.5979 0.3279 0.0000
vt 0.5837 0.3501 0.0000
vt 0.5795 0.3774 0.0000
vt 0.5223 0.2779 0.0000
vt 0.3621 0.7268 0.0000
vt 0.2542 0.5565 0.0000
vt 0.2643 0.5505 0.0000
vt 0.3686 0.7104 0.0000
vt 0.3773 0.4835 0.0000
vt 0.3367 0.4473 0.0000
vt 0.3791 0.4001 0.0000
vt 0.4104 0.4412 0.0000
vt 0.5286 0.7120 0.0000
vt 0.4534 0.7373 0.0000
vt 0.2922 0.5369 0.0000
vt 0.3750 0.5310 0.0000
vt 0.3823 0.6729 0.0000
vt 0.5953 0.6400 0.0000
vt 0.6178 0.5946 0.0000
vt 0.6268 0.6037 0.0000
vt 0.6037 0.6510 0.0000
vt 0.4754 0.5551 0.0000
vt 0.4478 0.5632 0.0000
vt 0.4499 0.5530 0.0000
vt 0.0157 0.4564 0.0000
vt 0.0396 0.5073 0.0000
vt 0.0141 0.5059 0.0000
vt 0.0019 0.4376 0.0000
vt 0.3637 0.0714 0.0000
vt 0.1886 0.1800 0.0000
vt 0.1536 0.1393 0.0000
vt 0.3429 0.0466 0.0000
vt 0.5884 0.2194 0.0000
vt 0.5334 0.1757 0.0000
vt 0.5869 0.1961 0.0000
vt 0.4839 0.4424 0.0000
vt 0.4068 0.1648 0.0000
vt 0.4747 0.1607 0.0000
vt 0.4687 0.2660 0.0000
vt 0.4180 0.2687 0.0000
vt 0.8093 0.2758 0.0000
vt 0.7835 0.2839 0.0000
vt 0.7431 0.2389 0.0000
vt 0.7647 0.2278 0.0000
vt 0.6680 0.6441 0.0000
vt 0.7146 0.5274 0.0000
vt 0.6515 0.6981 0.0000
vt 0.6113 0.3703 0.0000
vt 0.4621 0.2912 0.0000
vt 0.4192 0.2888 0.0000
vt 0.4705 0.4144 0.0000
vt 0.5006 0.4151 0.0000
vt 0.2715 0.3810 0.0000
vt 0.3234 0.3101 0.0000
vt 0.3392 0.3304 0.0000
vt 0.2828 0.3956 0.0000
vt 0.4474 0.0068 0.0000
vt 0.4540 0.0527 0.0000
vt 0.4394 0.8520 0.0000
vt 0.4841 0.8545 0.0000
vt 0.5115 0.9510 0.0000
vt 0.4375 0.9535 0.0000
vt 0.5748 0.7783 0.0000
vt 0.6364 0.6845 0.0000
vt 0.7204 0.9042 0.0000
vt 0.5588 0.7635 0.0000
vt 0.1393 0.5069 0.0000
vt 0.6365 0.2560 0.0000
vt 0.6686 0.2798 0.0000
vt 0.8098 0.1753 0.0000
vt 0.6791 0.0803 0.0000
vt 0.2696 0.2402 0.0000
vt 0.5919 0.5878 0.0000
vt 0.4812 0.8297 0.0000
vt 0.4806 0.8090 0.0000
vt 0.4652 0.3539 0.0000
vt 0.0942 0.2995 0.0000
vt 0.1939 0.3409 0.0000
vt 0.6556 0.5011 0.0000
vt 0.4439 0.3677 0.0000
vt 0.4225 0.5266 0.0000
vt 0.1550 0.4405 0.0000
vt 0.6547 0.6316 0.0000
vt 0.5922 0.0076 0.0000
vt 0.6381 0.0200 0.0000
vt 0.6299 0.0629 0.0000
vt 0.5870 0.0525 0.0000
vt 0.1777 0.8532 0.0000
vt 0.5350 0.5567 0.0000
vt 0.8244 0.5845 0.0000
vt 0.7860 0.5712 0.0000
vt 0.8356 0.3181 0.0000
vt 0.9103 0.3047 0.0000
vt 0.7731 0.5686 0.0000
vt 0.2724 0.8948 0.0000
vt 0.7235 0.3410 0.0000
vt 0.7002 0.3086 0.0000
vt 0.2406 0.9258 0.0000
vt 0.1510 0.8794 0.0000
vt 0.7878 0.8682 0.0000
vt 0.4506 0.7600 0.0000
vt 0.0640 0.2746 0.0000
vt 0.2340 0.4656 0.0000
vt 0.2274 0.5093 0.0000
vt 0.5733 0.6188 0.0000
vt 0.5224 0.5747 0.0000
vt 0.5337 0.0472 0.0000
vt 0.5327 0.0019 0.0000
vt 0.2472 0.4685 0.0000
vt 0.9691 0.3213 0.0000
vt 0.8093 0.3243 0.0000
vt 0.6190 0.2786 0.0000
vt 0.0259 0.6012 0.0000
vt 0.0044 0.6349 0.0000
vt 0.5098 0.9966 0.0000
vt 0.4215 0.9980 0.0000
vt 0.6846 0.0374 0.0000
vt 0.8408 0.1428 0.0000
vt 0.8729 0.2468 0.0000
vt 0.9192 0.2301 0.0000
vt 0.2449 0.5042 0.0000
# 138 texture coords

g Group31612
f 1/1/1 2/2/2 3/3/3 
f 1/1/1 3/3/3 4/4/4 
f 5/5/5 6/6/6 7/7/7 
f 8/8/8 9/9/9 10/10/10 
f 8/8/8 10/10/10 11/11/11 
f 12/12/12 13/13/13 14/14/14 
f 12/12/12 15/15/15 13/13/13 
f 16/16/16 17/17/17 18/18/18 
f 16/16/16 18/18/18 19/19/19 
f 16/16/16 19/19/19 20/20/20 
f 16/16/16 21/21/21 17/17/17 
f 22/22/22 23/23/23 24/24/24 
f 22/22/22 24/24/24 25/25/25 
f 26/26/26 27/27/27 28/28/28 
f 26/26/26 28/28/28 29/29/29 
f 2/2/2 30/30/30 31/31/31 
f 2/2/2 31/31/31 3/3/3 
f 32/32/32 33/33/33 34/34/34 
f 35/35/35 36/36/36 37/37/37 
f 35/35/35 37/37/37 38/38/38 
f 8/8/8 39/39/39 40/40/40 
f 8/8/8 40/40/40 41/41/41 
f 42/42/42 43/43/43 44/44/44 
f 42/42/42 44/44/44 45/45/45 
f 46/46/46 47/47/47 48/48/48 
f 46/46/46 48/48/48 49/49/49 
f 50/50/50 51/51/51 52/52/52 
f 20/20/20 11/11/11 10/10/10 
f 20/20/20 10/10/10 53/53/53 
f 54/54/54 55/55/55 56/56/56 
f 54/54/54 56/56/56 57/57/57 
f 58/58/58 59/59/59 60/60/60 
f 58/58/58 60/60/60 61/61/61 
f 10/10/10 9/9/9 26/26/26 
f 10/10/10 26/26/26 29/29/29 
f 62/62/62 63/63/63 64/64/64 
f 12/12/12 65/65/65 19/19/19 
f 12/12/12 19/19/19 18/18/18 
f 66/66/66 56/56/56 21/21/21 
f 66/66/66 21/21/21 16/16/16 
f 66/66/66 67/67/67 57/57/57 
f 66/66/66 57/57/57 56/56/56 
f 68/68/68 69/69/69 53/53/53 
f 70/70/70 71/71/71 72/72/72 
f 70/70/70 72/72/72 73/73/73 
f 4/4/4 40/40/40 39/39/39 
f 4/4/4 39/39/39 1/1/1 
f 74/74/74 75/75/75 46/46/46 
f 74/74/74 46/46/46 49/49/49 
f 76/76/76 77/77/77 78/78/78 
f 76/76/76 78/78/78 79/79/79 
f 46/46/46 75/75/75 55/55/55 
f 46/46/46 55/55/55 54/54/54 
f 80/80/80 81/81/81 64/64/64 
f 80/80/80 64/64/64 82/82/82 
f 80/80/80 83/83/83 81/81/81 
f 83/83/83 30/30/30 35/35/35 
f 83/83/83 35/35/35 38/38/38 
f 84/84/84 7/7/7 6/6/6 
f 84/84/84 6/6/6 43/43/43 
f 85/85/85 60/60/60 86/86/86 
f 85/85/85 61/61/61 60/60/60 
f 87/87/87 61/61/61 85/85/85 
f 87/87/87 85/85/85 88/88/88 
f 89/89/89 47/47/47 46/46/46 
f 89/89/89 46/46/46 54/54/54 
f 36/36/36 90/90/90 20/20/20 
f 91/91/91 76/76/76 92/92/92 
f 20/20/20 69/69/69 93/93/93 
f 20/20/20 93/93/93 16/16/16 
f 94/94/94 47/47/47 89/89/89 
f 94/94/94 89/89/89 95/95/95 
f 14/14/14 63/63/63 96/96/96 
f 14/14/14 96/96/96 12/12/12 
f 68/68/68 29/29/29 28/28/28 
f 68/68/68 28/28/28 97/97/97 
f 33/33/33 98/98/98 40/40/40 
f 33/33/33 40/40/40 4/4/4 
f 95/95/95 99/99/99 42/42/42 
f 95/95/95 42/42/42 94/94/94 
f 62/62/62 64/64/64 81/81/81 
f 62/62/62 81/81/81 100/100/100 
f 63/63/63 82/82/82 64/64/64 
f 101/101/101 102/102/102 103/103/103 
f 101/101/101 103/103/103 104/104/104 
f 105/105/105 5/5/5 7/7/7 
f 20/20/20 106/106/106 11/11/11 
f 84/84/84 43/43/43 42/42/42 
f 84/84/84 42/42/42 99/99/99 
f 96/96/96 37/37/37 36/36/36 
f 21/21/21 56/56/56 55/55/55 
f 21/21/21 55/55/55 51/51/51 
f 93/93/93 66/66/66 16/16/16 
f 93/93/93 97/97/97 67/67/67 
f 93/93/93 67/67/67 66/66/66 
f 85/85/85 103/103/103 88/88/88 
f 107/107/107 108/108/108 109/109/109 
f 107/107/107 109/109/109 110/110/110 
f 3/3/3 31/31/31 25/25/25 
f 3/3/3 25/25/25 34/34/34 
f 63/63/63 111/111/111 82/82/82 
f 79/79/79 112/112/112 7/7/7 
f 79/79/79 7/7/7 76/76/76 
f 14/14/14 113/113/113 63/63/63 
f 71/71/71 57/57/57 67/67/67 
f 71/71/71 67/67/67 72/72/72 
f 27/27/27 73/73/73 72/72/72 
f 27/27/27 72/72/72 28/28/28 
f 34/34/34 33/33/33 4/4/4 
f 34/34/34 4/4/4 3/3/3 
f 98/98/98 33/33/33 26/26/26 
f 98/98/98 26/26/26 9/9/9 
f 114/114/114 113/113/113 14/14/14 
f 114/114/114 14/14/14 13/13/13 
f 105/105/105 115/115/115 116/116/116 
f 37/37/37 96/96/96 63/63/63 
f 37/37/37 63/63/63 100/100/100 
f 117/117/117 108/108/108 107/107/107 
f 117/117/117 82/82/82 111/111/111 
f 117/117/117 111/111/111 108/108/108 
f 92/92/92 76/76/76 118/118/118 
f 92/92/92 118/118/118 83/83/83 
f 47/47/47 94/94/94 119/119/119 
f 47/47/47 119/119/119 48/48/48 
f 106/106/106 39/39/39 8/8/8 
f 106/106/106 8/8/8 11/11/11 
f 20/20/20 19/19/19 65/65/65 
f 84/84/84 99/99/99 120/120/120 
f 84/84/84 120/120/120 121/121/121 
f 86/86/86 114/114/114 13/13/13 
f 86/86/86 13/13/13 15/15/15 
f 40/40/40 98/98/98 41/41/41 
f 122/122/122 2/2/2 1/1/1 
f 122/122/122 1/1/1 123/123/123 
f 32/32/32 34/34/34 25/25/25 
f 32/32/32 25/25/25 24/24/24 
f 124/124/124 75/75/75 74/74/74 
f 124/124/124 74/74/74 125/125/125 
f 73/73/73 126/126/126 120/120/120 
f 73/73/73 120/120/120 70/70/70 
f 117/117/117 107/107/107 127/127/127 
f 20/20/20 90/90/90 106/106/106 
f 78/78/78 77/77/77 82/82/82 
f 63/63/63 62/62/62 100/100/100 
f 63/63/63 113/113/113 128/128/128 
f 63/63/63 128/128/128 111/111/111 
f 122/122/122 123/123/123 106/106/106 
f 122/122/122 106/106/106 90/90/90 
f 85/85/85 50/50/50 52/52/52 
f 23/23/23 22/22/22 7/7/7 
f 109/109/109 108/108/108 111/111/111 
f 109/109/109 111/111/111 128/128/128 
f 110/110/110 127/127/127 107/107/107 
f 128/128/128 113/113/113 114/114/114 
f 128/128/128 114/114/114 59/59/59 
f 119/119/119 94/94/94 42/42/42 
f 119/119/119 42/42/42 45/45/45 
f 129/129/129 15/15/15 12/12/12 
f 129/129/129 12/12/12 18/18/18 
f 130/130/130 44/44/44 43/43/43 
f 130/130/130 43/43/43 6/6/6 
f 130/130/130 105/105/105 116/116/116 
f 130/130/130 116/116/116 131/131/131 
f 130/130/130 6/6/6 5/5/5 
f 130/130/130 5/5/5 105/105/105 
f 129/129/129 85/85/85 86/86/86 
f 129/129/129 86/86/86 15/15/15 
f 78/78/78 132/132/132 133/133/133 
f 78/78/78 133/133/133 79/79/79 
f 28/28/28 72/72/72 67/67/67 
f 28/28/28 67/67/67 97/97/97 
f 128/128/128 59/59/59 58/58/58 
f 128/128/128 58/58/58 109/109/109 
f 112/112/112 79/79/79 133/133/133 
f 112/112/112 133/133/133 115/115/115 
f 134/134/134 135/135/135 87/87/87 
f 134/134/134 87/87/87 88/88/88 
f 20/20/20 53/53/53 69/69/69 
f 88/88/88 103/103/103 102/102/102 
f 88/88/88 102/102/102 134/134/134 
f 71/71/71 70/70/70 95/95/95 
f 71/71/71 95/95/95 89/89/89 
f 29/29/29 68/68/68 53/53/53 
f 29/29/29 53/53/53 10/10/10 
f 89/89/89 54/54/54 57/57/57 
f 89/89/89 57/57/57 71/71/71 
f 129/129/129 50/50/50 85/85/85 
f 80/80/80 91/91/91 92/92/92 
f 80/80/80 92/92/92 83/83/83 
f 17/17/17 50/50/50 129/129/129 
f 17/17/17 129/129/129 18/18/18 
f 104/104/104 103/103/103 85/85/85 
f 104/104/104 85/85/85 52/52/52 
f 104/104/104 52/52/52 51/51/51 
f 104/104/104 51/51/51 124/124/124 
f 51/51/51 55/55/55 75/75/75 
f 51/51/51 75/75/75 124/124/124 
f 58/58/58 61/61/61 87/87/87 
f 58/58/58 87/87/87 136/136/136 
f 81/81/81 38/38/38 37/37/37 
f 81/81/81 37/37/37 100/100/100 
f 58/58/58 136/136/136 110/110/110 
f 58/58/58 110/110/110 109/109/109 
f 36/36/36 20/20/20 65/65/65 
f 35/35/35 122/122/122 90/90/90 
f 35/35/35 90/90/90 36/36/36 
f 32/32/32 27/27/27 26/26/26 
f 32/32/32 26/26/26 33/33/33 
f 80/80/80 82/82/82 77/77/77 
f 80/80/80 77/77/77 91/91/91 
f 96/96/96 36/36/36 65/65/65 
f 96/96/96 65/65/65 12/12/12 
f 7/7/7 84/84/84 121/121/121 
f 7/7/7 121/121/121 23/23/23 
f 21/21/21 51/51/51 50/50/50 
f 21/21/21 50/50/50 17/17/17 
f 25/25/25 31/31/31 118/118/118 
f 25/25/25 118/118/118 22/22/22 
f 73/73/73 27/27/27 32/32/32 
f 73/73/73 32/32/32 126/126/126 
f 9/9/9 8/8/8 41/41/41 
f 9/9/9 41/41/41 98/98/98 
f 81/81/81 83/83/83 38/38/38 
f 114/114/114 86/86/86 60/60/60 
f 114/114/114 60/60/60 59/59/59 
f 31/31/31 30/30/30 83/83/83 
f 105/105/105 7/7/7 112/112/112 
f 105/105/105 112/112/112 115/115/115 
f 91/91/91 77/77/77 76/76/76 
f 95/95/95 70/70/70 120/120/120 
f 95/95/95 120/120/120 99/99/99 
f 1/1/1 39/39/39 106/106/106 
f 1/1/1 106/106/106 123/123/123 
f 76/76/76 7/7/7 22/22/22 
f 76/76/76 22/22/22 118/118/118 
f 82/82/82 132/132/132 78/78/78 
f 137/137/137 136/136/136 87/87/87 
f 137/137/137 87/87/87 135/135/135 
f 120/120/120 126/126/126 138/138/138 
f 120/120/120 138/138/138 121/121/121 
f 138/138/138 24/24/24 23/23/23 
f 138/138/138 23/23/23 121/121/121 
f 138/138/138 126/126/126 32/32/32 
f 138/138/138 32/32/32 24/24/24 
f 35/35/35 30/30/30 2/2/2 
f 35/35/35 2/2/2 122/122/122 
f 124/124/124 125/125/125 101/101/101 
f 124/124/124 101/101/101 104/104/104 
f 31/31/31 83/83/83 118/118/118 
f 93/93/93 69/69/69 68/68/68 
f 93/93/93 68/68/68 97/97/97 
f 137/137/137 127/127/127 110/110/110 
f 137/137/137 110/110/110 136/136/136 
# 253 faces

